<svg xmlns="http://www.w3.org/2000/svg" viewBox="0 0 500 500">
  <defs>
    <style>
      .svg-logo_shadow-1,
      .svg-logo_shadow-2,
      .svg-logo_shadow-3 {
        fill: #ccb78b;
      }
      .svg-logo_shadow-2 {
        font-size: 19.74px;
      }
      .svg-logo_shadow-2,
      .svg-logo_shadow-3 {
        font-family: CenturyGothic-Bold, Century Gothic;
        font-weight: 700;
      }
      .svg-logo_shadow-3 {
        font-size: 42.97px;
      }
    </style>
  </defs>
  <title>YCS logo 圖檔</title>
  <g id="shadow_light">
    <path
      class="svg-logo_shadow-1"
      d="M326.68,19.67H165a119.87,119.87,0,0,0-33.94,4.88l-1.89.56-.41.14q-1.78.57-3.54,1.19l-1.33.48q-1.54.56-3.06,1.17l-1,.4c-1.13.46-2.25.94-3.36,1.43l-1.15.52c-1.18.54-2.36,1.09-3.52,1.67l-.77.4q-1.53.77-3,1.59l-.89.48q-1.74,1-3.45,2l-.81.49q-1.59,1-3.14,2l-.44.28C98.15,40,97,40.8,95.9,41.6l-.73.52c-1.13.81-2.25,1.64-3.35,2.49l-.14.11Q90.06,46,88.48,47.29l-.56.46q-1.61,1.35-3.17,2.76l-.39.36q-1.5,1.36-2.95,2.78l-.27.26q-1.53,1.5-3,3l-.44.47q-3,3.15-5.69,6.51l-.38.47Q70.28,66.08,69,67.81l-.14.2q-1.26,1.69-2.46,3.43l-.24.35q-1.22,1.78-2.38,3.61l-.29.47q-2.32,3.69-4.37,7.56l-.31.58c-.67,1.29-1.33,2.59-2,3.9l0,.09q-.92,1.93-1.76,3.89l-.25.57q-.84,2-1.62,4L53,97q-.73,1.92-1.39,3.86l-.12.36q-.69,2-1.3,4.11l-.22.77q-1.21,4.17-2.12,8.46l-.17.83q-.43,2.1-.79,4.22c0,.21-.07.43-.1.64q-.31,1.94-.57,3.91c0,.24-.06.48-.09.72q-.26,2.13-.44,4.29c0,.31,0,.61-.07.92-.11,1.4-.2,2.8-.26,4.22,0,.09,0,.17,0,.26-.06,1.47-.08,2.95-.09,4.43,0,.17,0,.35,0,.52s0,.5,0,.75q0,.76,0,1.52t0,1.61c0,.26,0,.52,0,.79s0,.55,0,.83q0,.65.07,1.31,0,.87.11,1.74,0,.63.09,1.26.07.86.15,1.71.06.66.13,1.32t.18,1.55c.06.51.12,1,.19,1.51s.12.84.18,1.25c.09.61.18,1.21.27,1.82,0,.28.09.56.14.85q.19,1.12.39,2.23l.06.31a119.93,119.93,0,0,0,104.27,96.74l.29,0,2.3.23.85.08,1.88.14,1.26.08,1.6.08,1.5.06,1.47,0,.79,0h2.12l1.67,0,1.25,0,1.69-.06,1.21-.05,1.76-.11,1.12-.07,2-.17.89-.08q1.4-.14,2.79-.31l1-.13,1.81-.25,1.27-.2,1.51-.25,1.35-.25,1.41-.26,1.4-.29,1.33-.28,1.44-.33,1.26-.3,1.47-.37,1.18-.31,1.52-.42,1.1-.32,1.57-.47,1-.31,1.67-.54.68-.24q4.46-1.53,8.76-3.39l.51-.22,1.81-.82.65-.3,1.74-.83.69-.34,1.7-.86.69-.36,1.68-.89.67-.37,1.68-.94.61-.35,1.71-1,.5-.3,1.79-1.11.22-.14q4-2.55,7.8-5.41l.58-.44,1.34-1,.81-.63,1.2-1,.59-.48a5.15,5.15,0,0,1,5.79-.55l2,1.92a92,92,0,0,1,27.23,56.82A94.89,94.89,0,0,1,95,336.66c-.25-.58-.49-1.16-.73-1.75a12.55,12.55,0,0,0-23.15,9.41c.27.69.55,1.35.83,2a119.89,119.89,0,0,0,229.29-61.42A107.29,107.29,0,0,0,293,255.07a120,120,0,0,0,33.36,4.27c63.5-.8,115.81-51.72,118.22-115.18A119.85,119.85,0,0,0,326.68,19.67Z"
    />
    <text class="svg-logo_shadow-2" transform="translate(171.73 489.7)">
      ENTERPRISE CO.
    </text>
    <text class="svg-logo_shadow-3" transform="translate(112.62 463.22)">
      YI CHIA HSIN
    </text>
  </g>
</svg>
