<svg
  id="圖層_1"
  data-name="圖層 1"
  xmlns="http://www.w3.org/2000/svg"
  xmlns:xlink="http://www.w3.org/1999/xlink"
  viewBox="0 0 500 500"
>
  <defs>
    <style>
      .svg-logo-1 {
        fill: none;
      }
      .svg-logo-2 {
        fill: #faea06;
      }
      .svg-logo-3 {
        fill: #db00fb;
      }
      .svg-logo-4 {
        clip-path: url(#clip-path);
      }
      .svg-logo-5,
      .svg-logo-6,
      .svg-logo-7 {
        fill: #8d03fb;
      }
      .svg-logo-6 {
        font-size: 19.74px;
      }
      .svg-logo-6,
      .svg-logo-7 {
        font-family: CenturyGothic-Bold, Century Gothic;
        font-weight: 700;
      }
      .svg-logo-7 {
        font-size: 42.97px;
      }
    </style>
    <clipPath id="clip-path">
      <path
        class="svg-logo-1"
        d="M337.18,201.74a68.19,68.19,0,0,1-33.43-8.79,45.62,45.62,0,0,1-12.59-10.44c-1.1-1.31-2.19-2.77-3.36-4.31a84.82,84.82,0,0,0-7.38-8.88c-6.81-6.89-15-10.68-23.17-10.7s-16.59,3.88-23.45,10.92a85.89,85.89,0,0,0-7.27,8.85c-1.21,1.62-2.35,3.15-3.5,4.52-7.82,9.32-19.14,14-27.27,16.32a67.47,67.47,0,0,1-18.39,2.52h-.89a66.92,66.92,0,0,1,.7-133.83H337.4a66.92,66.92,0,0,1,.65,133.83Z"
      />
    </clipPath>
  </defs>
  <title>YCS logo 圖檔</title>
  <g id="YSC_logo" data-name="YSC logo">
    <path
      class="svg-logo-2"
      d="M337.17,15H177.37A119.85,119.85,0,0,0,57.61,139.49C60,202.94,112.33,253.86,175.83,254.66A119.37,119.37,0,0,0,254,227a5.15,5.15,0,0,1,6.6,0,119.37,119.37,0,0,0,78.15,27.67c63.5-.8,115.81-51.72,118.22-115.18A119.85,119.85,0,0,0,337.17,15Z"
    />
    <path
      class="svg-logo-3"
      d="M337.18,214.72a81.23,81.23,0,0,1-39.8-10.47,58.9,58.9,0,0,1-16.16-13.41c-3.42-4.08-6.28-8.62-10-12.4s-8.63-6.83-14-6.84-10.37,3.13-14.14,7-6.65,8.51-10.12,12.65c-8.58,10.22-21,16.86-33.67,20.46a80.56,80.56,0,0,1-21.93,3h-1a79.9,79.9,0,0,1,.88-159.79H337.34a79.9,79.9,0,0,1,.87,159.79Z"
    />
    <g class="svg-logo-4">
      <rect
        class="svg-logo-2"
        x="145.72"
        y="54.78"
        width="36.5"
        height="174.17"
        transform="translate(-51.24 115.42) rotate(-33.86)"
      />
      <rect
        class="svg-logo-2"
        x="102.8"
        y="103.88"
        width="32.2"
        height="136.37"
        transform="translate(-75.7 95.44) rotate(-33.86)"
      />
      <rect
        class="svg-logo-5"
        x="371.74"
        y="33.8"
        width="17.08"
        height="158.02"
        transform="translate(1.64 231.02) rotate(-33.86)"
      />
      <rect
        class="svg-logo-5"
        x="330.93"
        y="31.44"
        width="19.92"
        height="186.3"
        transform="translate(-11.6 211.07) rotate(-33.86)"
      />
    </g>
    <path
      class="svg-logo-3"
      d="M265.42,211.11a12.42,12.42,0,0,1-3.17,8.32c-.4.41-.81.81-1.22,1.2A119.86,119.86,0,1,1,141.54,20.42l2.08-.62h0a13,13,0,0,1,2.52-.25,12.54,12.54,0,0,1,4.54,24.22l-1.82.55a94.87,94.87,0,1,0,94.88,158.22c.25-.23.49-.47.72-.71l.06,0a12.53,12.53,0,0,1,20.89,9.33Z"
    />
    <path
      class="svg-logo-5"
      d="M420.74,72.36a12.54,12.54,0,0,1-14-1.95c-.43-.47-.86-.93-1.3-1.39A94.89,94.89,0,0,0,252.12,177.1a93.92,93.92,0,0,0,19.31,26.07c21.47,20.54,38.49,46.84,42.12,77.08A119.89,119.89,0,0,1,84.26,341.66c-.28-.67-.56-1.33-.83-2a12.54,12.54,0,0,1,23.15-9.41c.24.59.48,1.17.73,1.75a94.89,94.89,0,0,0,181.63-46.79,92,92,0,0,0-27.23-56.82c-12.57-12.33-24-24.18-32-40.15A119.89,119.89,0,0,1,417.56,46q2.43,2.2,4.74,4.54c2,2,4,4.09,4.83,6.89a12.55,12.55,0,0,1-6.39,14.93Z"
    />
    <text class="svg-logo-6" transform="translate(184.06 485.03)">
      ENTERPRISE CO.
    </text>
    <text class="svg-logo-7" transform="translate(124.95 458.55)">
      YI CHIA HSIN
    </text>
  </g>
</svg>
