<svg id="圖層_1" data-name="圖層 1" xmlns="http://www.w3.org/2000/svg" viewBox="0 0 216.63 216.57"><defs><style>.cls-1{fill:#21242e;}.cls-2{fill:#12151b;}.cls-3{fill:#ddd8c3;}</style></defs><title>homepage_recruit</title><circle class="cls-1" cx="108.35" cy="108.28" r="108.28"/><path class="cls-2" d="M117.58,9.43a107.8,107.8,0,0,1,71.69,27.16A108.21,108.21,0,1,0,36.53,189.33,108.21,108.21,0,0,1,117.58,9.43Z"/><path class="cls-3" d="M173.64,69.47C162.36,46,130.88,37.75,103.34,51S62.63,94,73.92,117.46s42.76,31.73,70.3,18.48S184.93,92.93,173.64,69.47Zm-7.47,33.82c-4.79,10.82-13.82,19.85-25.42,25.43a55,55,0,0,1-23.65,5.53c-16.17,0-30-7.76-36-20.26-9.36-19.44,2.17-44.47,25.68-55.79a55,55,0,0,1,23.65-5.53c16.17,0,30,7.76,36,20.26C170.86,82.14,170.77,92.92,166.18,103.29Z"/><path class="cls-3" d="M75.2,126s26.33,37.33,73,11.67c7.33-3.67,33.67-20.67,31.67-54,2,11,6.33,37.51-30,58.59C149.86,142.26,102.86,170,75.2,126Z"/><path class="cls-3" d="M83.86,114.33c-2.32-6.19-3.71-12.3-3.11-19,1.33-15,12.19-27.91,25.24-34.74,11.4-6,26.69-8.3,39-3.81,9.47,3.45,16.44,11,20.84,19.88-1.08-2.18-3.18-4.29-4.79-6.09a44.29,44.29,0,0,0-6.31-5.89,34.44,34.44,0,0,0-18.27-6.89c-16.29-1.21-35.32,6.6-45.5,19.52-7,8.87-9.62,20.46-8.24,31.58A24.2,24.2,0,0,0,83.86,114.33Z"/><path class="cls-3" d="M36.2,161.33a20.92,20.92,0,0,1,5.89,4.94,14.43,14.43,0,0,1,3.12,6.65c1.93-1.34,33.25-26.17,35.39-27.92,0,0-.74-7.33-9.07-11.33C71.39,133.6,37.3,160.5,36.2,161.33Z"/><polygon class="cls-3" points="75.2 137 80.6 132.33 84.2 137 78.97 141.52 75.2 137"/><path class="cls-3" d="M34.86,162.48s7.1,4.06,9,11.21C42.58,173.69,36.1,169.08,34.86,162.48Z"/><path class="cls-3" d="M96.39,125.71s24.49,17.86,52.81-6.12V84.39H96.39Z"/><path class="cls-3" d="M96.39,148.33v46.45H149.2V146S122.8,161.08,96.39,148.33Z"/><circle class="cls-1" cx="122.69" cy="111.41" r="9.18"/><path class="cls-3" d="M96.39,74.75v6H149.2V64.13S122.8,50.38,96.39,74.75Z"/><path class="cls-1" d="M105.12,80.75V73.38s-.89-5.12,5.61-5.25,24.37,0,24.37,0,6-.06,6,6.28v6.34Z"/><path class="cls-1" d="M139.63,126.28a6.64,6.64,0,0,0-4.52-1.92s-17.87-.12-24.37,0-5.61,5.25-5.61,5.25v.32C113,132.58,125.46,134.19,139.63,126.28Z"/><circle class="cls-1" cx="122.69" cy="169.09" r="9.18"/><path class="cls-1" d="M117,62.43a9.17,9.17,0,0,0,13.39-2.16A46,46,0,0,0,117,62.43Z"/><path class="cls-1" d="M105.12,194.79v-7.37s-.89-5.12,5.61-5.25,24.37,0,24.37,0,6-.06,6,6.28v6.34Z"/><path class="cls-3" d="M96.39,32H149.2V44.68A57.63,57.63,0,0,0,96.39,51.5Z"/></svg>