<svg id="圖層_1" data-name="圖層 1" xmlns="http://www.w3.org/2000/svg" viewBox="0 0 216.63 216.57"><defs><style>.cls-1{fill:#21242e;}.cls-2{fill:#12151b;}.cls-3{fill:#ddd8c3;}</style></defs><title>icon</title><circle class="cls-1" cx="108.35" cy="108.28" r="108.28"/><path class="cls-2" d="M117.58,9.43a107.8,107.8,0,0,1,71.69,27.16A108.21,108.21,0,1,0,36.53,189.33,108.21,108.21,0,0,1,117.58,9.43Z"/><path class="cls-3" d="M173.92,159.92a1.31,1.31,0,0,1-1.33,1.55H44a1.31,1.31,0,0,1-1.33-1.55l1.88-12.37a1.89,1.89,0,0,1,1.8-1.55H170.25a1.89,1.89,0,0,1,1.8,1.55Z"/><path class="cls-3" d="M139.19,86.14A1.35,1.35,0,0,1,140.92,85l.36.1,36.07,9.6.46.12a1.23,1.23,0,0,1,.81,1.8l-4,8.1a2,2,0,0,1-2.21,1l-5.45-1.44-21.3-5.63L139.32,97A1.83,1.83,0,0,1,138,95Z"/><path class="cls-3" d="M108.28,55.1C97.43,55.1,75.51,57.54,58.4,66A19,19,0,0,1,74,76.19c2-2.35,8.65-5.56,34.25-5.56s32.23,3.21,34.25,5.56A19,19,0,0,1,158.17,66C141.06,57.54,119.13,55.1,108.28,55.1Z"/><path class="cls-3" d="M161.7,66.7a19,19,0,0,0-20.48,17.38v0l2.45.67.19.05,33.38,9.06A19,19,0,0,0,161.7,66.7Z"/><path class="cls-3" d="M77.37,86.14A1.35,1.35,0,0,0,75.65,85l-.36.1-36.07,9.6-.45.12a1.23,1.23,0,0,0-.82,1.8l4,8.1a2,2,0,0,0,2.21,1l5.45-1.44,21.29-5.63L77.24,97a1.83,1.83,0,0,0,1.31-2Z"/><path class="cls-3" d="M54.86,66.7A19,19,0,0,1,73.25,76.84a18.91,18.91,0,0,1,2.08,7.24s0,0,0,0l-2.45.67-.19.05L39.31,93.89A19,19,0,0,1,54.86,66.7Z"/><path class="cls-3" d="M108.28,78.49c-16.2-.37-19.37-4.28-20-6.14a54,54,0,0,0-8.44,1.56c-.09,8.65,8.38,6.67,10.52,7.35a4.19,4.19,0,0,1,2.67,2.1h30.42a4.18,4.18,0,0,1,2.67-2.1c2.15-.68,10.61,1.3,10.52-7.35a54,54,0,0,0-8.44-1.56C127.65,74.21,124.48,78.12,108.28,78.49Z"/><path class="cls-3" d="M168.58,140c-6.85-4.8-18.78-15.41-22.51-20.26-11.19-14.55-10.89-19.4-13.12-21.63-1.48-1.48-3-.88-6.36-5.48-3.47-4.8-3.2-8.5-3.2-8.5H93.18s.27,3.7-3.21,8.5c-3.33,4.6-4.88,4-6.36,5.48-2.23,2.23-1.93,7.08-13.12,21.63C66.77,124.62,54.83,135.23,48,140c-3.15,2.21-1.79,4.89-1.79,4.89H170.37S171.73,142.24,168.58,140Z"/><path class="cls-1" d="M108.28,91.13a25,25,0,1,0,25,25A25,25,0,0,0,108.28,91.13Zm0,38a13.07,13.07,0,1,1,13.07-13.07A13.07,13.07,0,0,1,108.28,129.18Z"/><circle class="cls-3" cx="89.96" cy="121.63" r="4.09"/><circle class="cls-3" cx="96.71" cy="131.34" r="4.09" transform="translate(-58.74 81.94) rotate(-36.01)"/><circle class="cls-3" cx="107.88" cy="135.24" r="4.09" transform="translate(-54.08 196.03) rotate(-72)"/><circle class="cls-3" cx="119.2" cy="131.82" r="4.09" transform="translate(-34.88 43.25) rotate(-17.99)"/><circle class="cls-3" cx="126.35" cy="122.4" r="4.09" transform="translate(-46.94 152.69) rotate(-54)"/><circle class="cls-3" cx="126.6" cy="110.58" r="4.09"/><circle class="cls-3" cx="119.85" cy="100.87" r="4.09" transform="translate(-36.4 89.71) rotate(-36)"/><circle class="cls-3" cx="108.69" cy="96.97" r="4.09" transform="translate(-17.12 170.39) rotate(-72.01)"/><circle class="cls-3" cx="97.36" cy="100.39" r="4.09" transform="translate(-26.25 35) rotate(-18)"/><circle class="cls-3" cx="90.21" cy="109.81" r="4.09" transform="matrix(0.59, -0.81, 0.81, 0.59, -51.65, 118.24)"/></svg>